<svg xmlns="http://www.w3.org/2000/svg" width="254" height="172" fill="none" viewBox="0 0 254 172"><path fill="#8685E7" d="M221.271 97.774v38.768c0 9.671-4.427 17.941-13.28 24.809-8.853 6.868-19.513 10.301-31.98 10.301H45.26c-12.468 0-23.128-3.433-31.98-10.301C4.425 154.483 0 146.213 0 136.542V35.111c0-9.672 4.426-17.942 13.28-24.81C22.131 3.435 32.791 0 45.26 0H176.01c6.6 0 12.729 1.016 18.387 3.048 1.571.569 2.514 1.503 2.828 2.804.315 1.381-.157 2.56-1.414 3.535l-7.701 5.974c-1.047.813-2.252 1.22-3.614 1.22-.314 0-.786-.082-1.414-.245a35.61 35.61 0 0 0-7.072-.731H45.26c-6.915 0-12.834 1.91-17.758 5.73-4.924 3.82-7.386 8.412-7.386 13.776v101.431c0 5.364 2.462 9.956 7.386 13.776 4.924 3.82 10.843 5.73 17.758 5.73H176.01c6.914 0 12.834-1.91 17.758-5.73 4.924-3.82 7.386-8.412 7.386-13.776v-30.966c0-1.057.472-1.951 1.414-2.682l10.058-7.803c1.048-.812 2.253-1.219 3.615-1.219.628 0 1.257.122 1.886.366 2.095.65 3.143 1.829 3.143 3.536Zm36.302-59.616-127.922 99.237c-2.515 1.951-5.501 2.926-8.958 2.926s-6.443-.975-8.958-2.926L44.16 84.973c-2.515-1.95-3.772-4.267-3.772-6.95 0-2.681 1.257-4.998 3.772-6.948l17.287-13.41c2.514-1.951 5.5-2.926 8.957-2.926 3.458 0 6.444.975 8.958 2.925l41.331 32.063L222.371 10.85c2.514-1.95 5.5-2.926 8.957-2.926 3.458 0 6.444.976 8.958 2.926l17.287 13.41c2.514 1.951 3.771 4.267 3.771 6.95 0 2.682-1.257 4.998-3.771 6.948Z"/></svg>